<svg version="1.1" xmlns="http://www.w3.org/2000/svg" xmlns:xlink="http://www.w3.org/1999/xlink" width="561" height="640"><defs/><g><g transform="translate(-166,-222) scale(1,1)"><rect fill="#C0C0C0" stroke="none" x="399" y="687" width="88" height="72" opacity="0.2"/></g><g transform="translate(-166,-222) scale(1,1)"><rect fill="#ffffff" stroke="none" x="392" y="680" width="88" height="72"/></g><g transform="translate(-166,-222) scale(1,1)"><path fill="none" stroke="#000000" d="M 392 680 L 480 680 L 480 752 L 392 752 L 392 680 Z Z" stroke-miterlimit="10"/></g><g transform="translate(-166,-222) scale(1,1)"><path fill="none" stroke="#000000" d="M 392 705 L 480 705" stroke-miterlimit="10"/></g><g transform="translate(-166,-222) scale(1,1)"><path fill="none" stroke="#000000" d="M 392 715 L 480 715" stroke-miterlimit="10"/></g><g transform="translate(-166,-222) scale(1,1)"><g><path fill="none" stroke="none"/><text fill="#000000" stroke="none" font-family="Arial" font-size="13px" font-style="normal" font-weight="bold" text-decoration="none" x="406" y="699.5">DFSAgent</text></g></g><g transform="translate(-166,-222) scale(1,1)"><g><path fill="none" stroke="none"/><text fill="#000000" stroke="none" font-family="Arial" font-size="13px" font-style="normal" font-weight="normal" text-decoration="none" x="397" y="732.5">+getPath()</text></g></g><g transform="translate(-166,-222) scale(1,1)"><g><path fill="none" stroke="none"/><text fill="#000000" stroke="none" font-family="Arial" font-size="13px" font-style="normal" font-weight="normal" text-decoration="none" x="397" y="747.5">+getMoves()</text></g></g><g transform="translate(-166,-222) scale(1,1)"><rect fill="#C0C0C0" stroke="none" x="383" y="575" width="116" height="72" opacity="0.2"/></g><g transform="translate(-166,-222) scale(1,1)"><rect fill="#ffffff" stroke="none" x="376" y="568" width="116" height="72"/></g><g transform="translate(-166,-222) scale(1,1)"><path fill="none" stroke="#000000" d="M 376 568 L 492 568 L 492 640 L 376 640 L 376 568 Z Z" stroke-miterlimit="10"/></g><g transform="translate(-166,-222) scale(1,1)"><path fill="none" stroke="#000000" d="M 376 593 L 492 593" stroke-miterlimit="10"/></g><g transform="translate(-166,-222) scale(1,1)"><path fill="none" stroke="#000000" d="M 376 603 L 492 603" stroke-miterlimit="10"/></g><g transform="translate(-166,-222) scale(1,1)"><g><path fill="none" stroke="none"/><text fill="#000000" stroke="none" font-family="Arial" font-size="13px" font-style="normal" font-weight="bold" text-decoration="none" x="384" y="587.5">BestFirstSolitaire</text></g></g><g transform="translate(-166,-222) scale(1,1)"><g><path fill="none" stroke="none"/><text fill="#000000" stroke="none" font-family="Arial" font-size="13px" font-style="normal" font-weight="normal" text-decoration="none" x="381" y="620.5">+nextMoves()</text></g></g><g transform="translate(-166,-222) scale(1,1)"><g><path fill="none" stroke="none"/><text fill="#000000" stroke="none" font-family="Arial" font-size="13px" font-style="normal" font-weight="normal" text-decoration="none" x="381" y="635.5">+getChild()</text></g></g><g transform="translate(-166,-222) scale(1,1)"><rect fill="#C0C0C0" stroke="none" x="519" y="463" width="97" height="72" opacity="0.2"/></g><g transform="translate(-166,-222) scale(1,1)"><rect fill="#ffffff" stroke="none" x="512" y="456" width="97" height="72"/></g><g transform="translate(-166,-222) scale(1,1)"><path fill="none" stroke="#000000" d="M 512 456 L 609 456 L 609 528 L 512 528 L 512 456 Z Z" stroke-miterlimit="10"/></g><g transform="translate(-166,-222) scale(1,1)"><path fill="none" stroke="#000000" d="M 512 481 L 609 481" stroke-miterlimit="10"/></g><g transform="translate(-166,-222) scale(1,1)"><path fill="none" stroke="#000000" d="M 512 491 L 609 491" stroke-miterlimit="10"/></g><g transform="translate(-166,-222) scale(1,1)"><g><path fill="none" stroke="none"/><text fill="#000000" stroke="none" font-family="Arial" font-size="13px" font-style="normal" font-weight="bold" text-decoration="none" x="521.5" y="475.5">BoardCleaner</text></g></g><g transform="translate(-166,-222) scale(1,1)"><g><path fill="none" stroke="none"/><text fill="#000000" stroke="none" font-family="Arial" font-size="13px" font-style="normal" font-weight="normal" text-decoration="none" x="517" y="508.5">+clearBoard()</text></g></g><g transform="translate(-166,-222) scale(1,1)"><g><path fill="none" stroke="none"/><text fill="#000000" stroke="none" font-family="Arial" font-size="13px" font-style="normal" font-weight="normal" text-decoration="none" x="517" y="523.5">+clearAndGet()</text></g></g><g transform="translate(-166,-222) scale(1,1)"><rect fill="#C0C0C0" stroke="none" x="415" y="319" width="50" height="44" opacity="0.2"/></g><g transform="translate(-166,-222) scale(1,1)"><rect fill="#ffffff" stroke="none" x="408" y="312" width="50" height="44"/></g><g transform="translate(-166,-222) scale(1,1)"><path fill="none" stroke="#000000" d="M 408 312 L 458 312 L 458 356 L 408 356 L 408 312 Z Z" stroke-miterlimit="10"/></g><g transform="translate(-166,-222) scale(1,1)"><path fill="none" stroke="#000000" d="M 408 337 L 458 337" stroke-miterlimit="10"/></g><g transform="translate(-166,-222) scale(1,1)"><path fill="none" stroke="#000000" d="M 408 347 L 458 347" stroke-miterlimit="10"/></g><g transform="translate(-166,-222) scale(1,1)"><g><path fill="none" stroke="none"/><text fill="#000000" stroke="none" font-family="Arial" font-size="13px" font-style="normal" font-weight="bold" text-decoration="none" x="416" y="331.5">Board</text></g></g><g transform="translate(-166,-222) scale(1,1)"><rect fill="#C0C0C0" stroke="none" x="415" y="239" width="50" height="44" opacity="0.2"/></g><g transform="translate(-166,-222) scale(1,1)"><rect fill="#ffffff" stroke="none" x="408" y="232" width="50" height="44"/></g><g transform="translate(-166,-222) scale(1,1)"><path fill="none" stroke="#000000" d="M 408 232 L 458 232 L 458 276 L 408 276 L 408 232 Z Z" stroke-miterlimit="10"/></g><g transform="translate(-166,-222) scale(1,1)"><path fill="none" stroke="#000000" d="M 408 257 L 458 257" stroke-miterlimit="10"/></g><g transform="translate(-166,-222) scale(1,1)"><path fill="none" stroke="#000000" d="M 408 267 L 458 267" stroke-miterlimit="10"/></g><g transform="translate(-166,-222) scale(1,1)"><g><path fill="none" stroke="none"/><text fill="#000000" stroke="none" font-family="Arial" font-size="13px" font-style="normal" font-weight="bold" text-decoration="none" x="419.5" y="251.5">Card</text></g></g><g transform="translate(-166,-222) scale(1,1)"><rect fill="#C0C0C0" stroke="none" x="183" y="687" width="128" height="72" opacity="0.2"/></g><g transform="translate(-166,-222) scale(1,1)"><rect fill="#ffffff" stroke="none" x="176" y="680" width="128" height="72"/></g><g transform="translate(-166,-222) scale(1,1)"><path fill="none" stroke="#000000" d="M 176 680 L 304 680 L 304 752 L 176 752 L 176 680 Z Z" stroke-miterlimit="10"/></g><g transform="translate(-166,-222) scale(1,1)"><path fill="none" stroke="#000000" d="M 176 705 L 304 705" stroke-miterlimit="10"/></g><g transform="translate(-166,-222) scale(1,1)"><path fill="none" stroke="#000000" d="M 176 715 L 304 715" stroke-miterlimit="10"/></g><g transform="translate(-166,-222) scale(1,1)"><g><path fill="none" stroke="none"/><text fill="#000000" stroke="none" font-family="Arial" font-size="13px" font-style="normal" font-weight="bold" text-decoration="none" x="200.5" y="699.5">ScreenParser</text></g></g><g transform="translate(-166,-222) scale(1,1)"><g><path fill="none" stroke="none"/><text fill="#000000" stroke="none" font-family="Arial" font-size="13px" font-style="normal" font-weight="normal" text-decoration="none" x="181" y="732.5">+save_screenshot()</text></g></g><g transform="translate(-166,-222) scale(1,1)"><g><path fill="none" stroke="none"/><text fill="#000000" stroke="none" font-family="Arial" font-size="13px" font-style="normal" font-weight="normal" text-decoration="none" x="181" y="747.5">+parse_screenshot()</text></g></g><g transform="translate(-166,-222) scale(1,1)"><rect fill="#C0C0C0" stroke="none" x="415" y="815" width="50" height="44" opacity="0.2"/></g><g transform="translate(-166,-222) scale(1,1)"><rect fill="#ffffff" stroke="none" x="408" y="808" width="50" height="44"/></g><g transform="translate(-166,-222) scale(1,1)"><path fill="none" stroke="#000000" d="M 408 808 L 458 808 L 458 852 L 408 852 L 408 808 Z Z" stroke-miterlimit="10"/></g><g transform="translate(-166,-222) scale(1,1)"><path fill="none" stroke="#000000" d="M 408 833 L 458 833" stroke-miterlimit="10"/></g><g transform="translate(-166,-222) scale(1,1)"><path fill="none" stroke="#000000" d="M 408 843 L 458 843" stroke-miterlimit="10"/></g><g transform="translate(-166,-222) scale(1,1)"><g><path fill="none" stroke="none"/><text fill="#000000" stroke="none" font-family="Arial" font-size="13px" font-style="normal" font-weight="bold" text-decoration="none" x="419" y="827.5">main</text></g></g><g transform="translate(-166,-222) scale(1,1)"><path fill="none" stroke="#000000" d="M 407 815 L 303 753" stroke-miterlimit="10" stroke-dasharray="3"/></g><g transform="translate(-166,-222) scale(1,1)"><path fill="none" stroke="#000000" d="M 313.8847436019298 754.588192910275 L 303 753 L 309.5736540357136 761.8196979890894" stroke-miterlimit="10"/></g><g transform="translate(-166,-222) scale(1,1)"><path fill="none" stroke="#000000" d="M 434 807 L 435 753" stroke-miterlimit="10" stroke-dasharray="3"/></g><g transform="translate(-166,-222) scale(1,1)"><path fill="none" stroke="#000000" d="M 439.02063072400256 763.2388734039057 L 435 753 L 430.6030384339769 763.0829920652014" stroke-miterlimit="10"/></g><g transform="translate(-166,-222) scale(1,1)"><path fill="none" stroke="#000000" d="M 435 679 L 435 641" stroke-miterlimit="10" stroke-dasharray="3"/></g><g transform="translate(-166,-222) scale(1,1)"><path fill="none" stroke="#000000" d="M 439.209517756016 651.1626748576241 L 435 641 L 430.790482243984 651.1626748576241" stroke-miterlimit="10"/></g><g transform="translate(-166,-222) scale(1,1)"><rect fill="#C0C0C0" stroke="none" x="295" y="495" width="89" height="57" opacity="0.2"/></g><g transform="translate(-166,-222) scale(1,1)"><rect fill="#ffffff" stroke="none" x="288" y="488" width="89" height="57"/></g><g transform="translate(-166,-222) scale(1,1)"><path fill="none" stroke="#000000" d="M 288 488 L 377 488 L 377 545 L 288 545 L 288 488 Z Z" stroke-miterlimit="10"/></g><g transform="translate(-166,-222) scale(1,1)"><path fill="none" stroke="#000000" d="M 288 513 L 377 513" stroke-miterlimit="10"/></g><g transform="translate(-166,-222) scale(1,1)"><path fill="none" stroke="#000000" d="M 288 523 L 377 523" stroke-miterlimit="10"/></g><g transform="translate(-166,-222) scale(1,1)"><g><path fill="none" stroke="none"/><text fill="#000000" stroke="none" font-family="Arial" font-size="13px" font-style="normal" font-weight="bold" text-decoration="none" x="301" y="507.5">CardMover</text></g></g><g transform="translate(-166,-222) scale(1,1)"><g><path fill="none" stroke="none"/><text fill="#000000" stroke="none" font-family="Arial" font-size="13px" font-style="normal" font-weight="normal" text-decoration="none" x="293" y="540.5">+makeMove()</text></g></g><g transform="translate(-166,-222) scale(1,1)"><rect fill="#C0C0C0" stroke="none" x="607" y="687" width="117" height="72" opacity="0.2"/></g><g transform="translate(-166,-222) scale(1,1)"><rect fill="#ffffff" stroke="none" x="600" y="680" width="117" height="72"/></g><g transform="translate(-166,-222) scale(1,1)"><path fill="none" stroke="#000000" d="M 600 680 L 717 680 L 717 752 L 600 752 L 600 680 Z Z" stroke-miterlimit="10"/></g><g transform="translate(-166,-222) scale(1,1)"><path fill="none" stroke="#000000" d="M 600 705 L 717 705" stroke-miterlimit="10"/></g><g transform="translate(-166,-222) scale(1,1)"><path fill="none" stroke="#000000" d="M 600 715 L 717 715" stroke-miterlimit="10"/></g><g transform="translate(-166,-222) scale(1,1)"><g><path fill="none" stroke="none"/><text fill="#000000" stroke="none" font-family="Arial" font-size="13px" font-style="normal" font-weight="bold" text-decoration="none" x="619.5" y="699.5">GUIController</text></g></g><g transform="translate(-166,-222) scale(1,1)"><g><path fill="none" stroke="none"/><text fill="#000000" stroke="none" font-family="Arial" font-size="13px" font-style="normal" font-weight="normal" text-decoration="none" x="605" y="732.5">+pressNewGame()</text></g></g><g transform="translate(-166,-222) scale(1,1)"><g><path fill="none" stroke="none"/><text fill="#000000" stroke="none" font-family="Arial" font-size="13px" font-style="normal" font-weight="normal" text-decoration="none" x="605" y="747.5">+execute()</text></g></g><g transform="translate(-166,-222) scale(1,1)"><path fill="none" stroke="#000000" d="M 459 817 L 599 746" stroke-miterlimit="10" stroke-dasharray="3"/></g><g transform="translate(-166,-222) scale(1,1)"><path fill="none" stroke="#000000" d="M 591.8402474632423 754.3509247160056 L 599 746 L 588.0322949337752 746.842285925507" stroke-miterlimit="10"/></g><g transform="translate(-166,-222) scale(1,1)"><path fill="none" stroke="#000000" d="M 391 567 L 367 546" stroke-miterlimit="10"/></g><g transform="translate(-166,-222) scale(1,1)"><path fill="#000000" stroke="none" d="M 377.4201790929724 549.5241832628826 L 367 546 L 371.8762054144906 555.8601531811474 L 383.5566872835513 560.4871013731074"/></g><g transform="translate(-166,-222) scale(1,1)"><path fill="none" stroke="#000000" d="M 377.4201790929724 549.5241832628826 L 367 546 L 371.8762054144906 555.8601531811474 L 383.5566872835513 560.4871013731074 L 377.4201790929724 549.5241832628826" stroke-miterlimit="10"/></g><g transform="translate(-166,-222) scale(1,1)"><path fill="none" stroke="#000000" d="M 476 567 L 518 529" stroke-miterlimit="10"/></g><g transform="translate(-166,-222) scale(1,1)"><path fill="#000000" stroke="none" d="M 513.2882345314658 538.9397819980887 L 518 529 L 507.63979143147435 532.6967659402035 L 501.686212859277 543.7600931273208"/></g><g transform="translate(-166,-222) scale(1,1)"><path fill="none" stroke="#000000" d="M 513.2882345314658 538.9397819980887 L 518 529 L 507.63979143147435 532.6967659402035 L 501.686212859277 543.7600931273208 L 513.2882345314658 538.9397819980887" stroke-miterlimit="10"/></g><g transform="translate(-166,-222) scale(1,1)"><path fill="none" stroke="#000000" d="M 642 679 L 576 529" stroke-miterlimit="10" stroke-dasharray="3"/></g><g transform="translate(-166,-222) scale(1,1)"><path fill="none" stroke="#000000" d="M 583.9459364707276 536.6067137190222 L 576 529 L 576.2398667080637 539.9973844145943" stroke-miterlimit="10"/></g><g transform="translate(-166,-222) scale(1,1)"><path fill="none" stroke="#000000" d="M 434 567 L 433 357" stroke-miterlimit="10" stroke-dasharray="3"/></g><g transform="translate(-166,-222) scale(1,1)"><path fill="none" stroke="#000000" d="M 437.2578631709952 367.1425145411324 L 433 357 L 428.83892311125726 367.1826047318931" stroke-miterlimit="10"/></g><g transform="translate(-166,-222) scale(1,1)"><path fill="none" stroke="#000000" d="M 240 679 L 240 336 L 407 334" stroke-miterlimit="10" stroke-dasharray="3"/></g><g transform="translate(-166,-222) scale(1,1)"><path fill="none" stroke="#000000" d="M 396.88846362988613 338.33091586571067 L 407 334 L 396.78764408708565 329.9124840418705" stroke-miterlimit="10"/></g><g transform="translate(-166,-222) scale(1,1)"><path fill="none" stroke="#000000" d="M 433 311 L 433 277" stroke-miterlimit="10"/></g><g transform="translate(-166,-222) scale(1,1)"><path fill="#000000" stroke="none" d="M 437.209517756016 287.16267485762415 L 433 277 L 428.790482243984 287.16267485762415 L 433 299"/></g><g transform="translate(-166,-222) scale(1,1)"><path fill="none" stroke="#000000" d="M 437.209517756016 287.16267485762415 L 433 277 L 428.790482243984 287.16267485762415 L 433 299 L 437.209517756016 287.16267485762415" stroke-miterlimit="10"/></g></g></svg>