<svg version="1.1" xmlns="http://www.w3.org/2000/svg" xmlns:xlink="http://www.w3.org/1999/xlink" width="605.607421875" height="640"><defs/><g><g transform="translate(-126,-222) scale(1,1)"><rect fill="#C0C0C0" stroke="none" x="399" y="687" width="88" height="72" opacity="0.2"/></g><g transform="translate(-126,-222) scale(1,1)"><rect fill="#ffffff" stroke="none" x="392" y="680" width="88" height="72"/></g><g transform="translate(-126,-222) scale(1,1)"><path fill="none" stroke="#000000" d="M 392 680 L 480 680 L 480 752 L 392 752 L 392 680 Z Z" stroke-miterlimit="10"/></g><g transform="translate(-126,-222) scale(1,1)"><path fill="none" stroke="#000000" d="M 392 705 L 480 705" stroke-miterlimit="10"/></g><g transform="translate(-126,-222) scale(1,1)"><path fill="none" stroke="#000000" d="M 392 715 L 480 715" stroke-miterlimit="10"/></g><g transform="translate(-126,-222) scale(1,1)"><g><path fill="none" stroke="none"/><text fill="#000000" stroke="none" font-family="Arial" font-size="13px" font-style="normal" font-weight="bold" text-decoration="none" x="406" y="699.5">DFSAgent</text></g></g><g transform="translate(-126,-222) scale(1,1)"><g><path fill="none" stroke="none"/><text fill="#000000" stroke="none" font-family="Arial" font-size="13px" font-style="normal" font-weight="normal" text-decoration="none" x="397" y="732.5">+getPath()</text></g></g><g transform="translate(-126,-222) scale(1,1)"><g><path fill="none" stroke="none"/><text fill="#000000" stroke="none" font-family="Arial" font-size="13px" font-style="normal" font-weight="normal" text-decoration="none" x="397" y="747.5">+getMoves()</text></g></g><g transform="translate(-126,-222) scale(1,1)"><rect fill="#C0C0C0" stroke="none" x="383" y="575" width="122.49609375" height="72" opacity="0.2"/></g><g transform="translate(-126,-222) scale(1,1)"><rect fill="#ffffff" stroke="none" x="376" y="568" width="122.49609375" height="72"/></g><g transform="translate(-126,-222) scale(1,1)"><path fill="none" stroke="#000000" d="M 376 568 L 498.49609375 568 L 498.49609375 640 L 376 640 L 376 568 Z Z" stroke-miterlimit="10"/></g><g transform="translate(-126,-222) scale(1,1)"><path fill="none" stroke="#000000" d="M 376 593 L 498.49609375 593" stroke-miterlimit="10"/></g><g transform="translate(-126,-222) scale(1,1)"><path fill="none" stroke="#000000" d="M 376 603 L 498.49609375 603" stroke-miterlimit="10"/></g><g transform="translate(-126,-222) scale(1,1)"><g><path fill="none" stroke="none"/><text fill="#000000" stroke="none" font-family="Arial" font-size="13px" font-style="normal" font-weight="bold" text-decoration="none" x="387.248046875" y="587.5">BestFirstSolitaire</text></g></g><g transform="translate(-126,-222) scale(1,1)"><g><path fill="none" stroke="none"/><text fill="#000000" stroke="none" font-family="Arial" font-size="13px" font-style="normal" font-weight="normal" text-decoration="none" x="381" y="620.5">+nextMove()</text></g></g><g transform="translate(-126,-222) scale(1,1)"><g><path fill="none" stroke="none"/><text fill="#000000" stroke="none" font-family="Arial" font-size="13px" font-style="normal" font-weight="normal" text-decoration="none" x="381" y="635.5">+getChild()</text></g></g><g transform="translate(-126,-222) scale(1,1)"><rect fill="#C0C0C0" stroke="none" x="575" y="535" width="101.66943359375" height="72" opacity="0.2"/></g><g transform="translate(-126,-222) scale(1,1)"><rect fill="#ffffff" stroke="none" x="568" y="528" width="101.66943359375" height="72"/></g><g transform="translate(-126,-222) scale(1,1)"><path fill="none" stroke="#000000" d="M 568 528 L 669.66943359375 528 L 669.66943359375 600 L 568 600 L 568 528 Z Z" stroke-miterlimit="10"/></g><g transform="translate(-126,-222) scale(1,1)"><path fill="none" stroke="#000000" d="M 568 553 L 669.66943359375 553" stroke-miterlimit="10"/></g><g transform="translate(-126,-222) scale(1,1)"><path fill="none" stroke="#000000" d="M 568 563 L 669.66943359375 563" stroke-miterlimit="10"/></g><g transform="translate(-126,-222) scale(1,1)"><g><path fill="none" stroke="none"/><text fill="#000000" stroke="none" font-family="Arial" font-size="13px" font-style="normal" font-weight="bold" text-decoration="none" x="579.834716796875" y="547.5">BoardCleaner</text></g></g><g transform="translate(-126,-222) scale(1,1)"><g><path fill="none" stroke="none"/><text fill="#000000" stroke="none" font-family="Arial" font-size="13px" font-style="normal" font-weight="normal" text-decoration="none" x="573" y="580.5">+clearBoard()</text></g></g><g transform="translate(-126,-222) scale(1,1)"><g><path fill="none" stroke="none"/><text fill="#000000" stroke="none" font-family="Arial" font-size="13px" font-style="normal" font-weight="normal" text-decoration="none" x="573" y="595.5">+clearAndGet()</text></g></g><g transform="translate(-126,-222) scale(1,1)"><rect fill="#C0C0C0" stroke="none" x="311" y="319" width="50" height="44" opacity="0.2"/></g><g transform="translate(-126,-222) scale(1,1)"><rect fill="#ffffff" stroke="none" x="304" y="312" width="50" height="44"/></g><g transform="translate(-126,-222) scale(1,1)"><path fill="none" stroke="#000000" d="M 304 312 L 354 312 L 354 356 L 304 356 L 304 312 Z Z" stroke-miterlimit="10"/></g><g transform="translate(-126,-222) scale(1,1)"><path fill="none" stroke="#000000" d="M 304 337 L 354 337" stroke-miterlimit="10"/></g><g transform="translate(-126,-222) scale(1,1)"><path fill="none" stroke="#000000" d="M 304 347 L 354 347" stroke-miterlimit="10"/></g><g transform="translate(-126,-222) scale(1,1)"><g><path fill="none" stroke="none"/><text fill="#000000" stroke="none" font-family="Arial" font-size="13px" font-style="normal" font-weight="bold" text-decoration="none" x="312" y="331.5">Board</text></g></g><g transform="translate(-126,-222) scale(1,1)"><rect fill="#C0C0C0" stroke="none" x="311" y="239" width="50" height="44" opacity="0.2"/></g><g transform="translate(-126,-222) scale(1,1)"><rect fill="#ffffff" stroke="none" x="304" y="232" width="50" height="44"/></g><g transform="translate(-126,-222) scale(1,1)"><path fill="none" stroke="#000000" d="M 304 232 L 354 232 L 354 276 L 304 276 L 304 232 Z Z" stroke-miterlimit="10"/></g><g transform="translate(-126,-222) scale(1,1)"><path fill="none" stroke="#000000" d="M 304 257 L 354 257" stroke-miterlimit="10"/></g><g transform="translate(-126,-222) scale(1,1)"><path fill="none" stroke="#000000" d="M 304 267 L 354 267" stroke-miterlimit="10"/></g><g transform="translate(-126,-222) scale(1,1)"><g><path fill="none" stroke="none"/><text fill="#000000" stroke="none" font-family="Arial" font-size="13px" font-style="normal" font-weight="bold" text-decoration="none" x="315.5" y="251.5">Card</text></g></g><g transform="translate(-126,-222) scale(1,1)"><rect fill="#C0C0C0" stroke="none" x="143" y="679" width="134.5439453125" height="72" opacity="0.2"/></g><g transform="translate(-126,-222) scale(1,1)"><rect fill="#ffffff" stroke="none" x="136" y="672" width="134.5439453125" height="72"/></g><g transform="translate(-126,-222) scale(1,1)"><path fill="none" stroke="#000000" d="M 136 672 L 270.5439453125 672 L 270.5439453125 744 L 136 744 L 136 672 Z Z" stroke-miterlimit="10"/></g><g transform="translate(-126,-222) scale(1,1)"><path fill="none" stroke="#000000" d="M 136 697 L 270.5439453125 697" stroke-miterlimit="10"/></g><g transform="translate(-126,-222) scale(1,1)"><path fill="none" stroke="#000000" d="M 136 707 L 270.5439453125 707" stroke-miterlimit="10"/></g><g transform="translate(-126,-222) scale(1,1)"><g><path fill="none" stroke="none"/><text fill="#000000" stroke="none" font-family="Arial" font-size="13px" font-style="normal" font-weight="bold" text-decoration="none" x="163.77197265625" y="691.5">ScreenParser</text></g></g><g transform="translate(-126,-222) scale(1,1)"><g><path fill="none" stroke="none"/><text fill="#000000" stroke="none" font-family="Arial" font-size="13px" font-style="normal" font-weight="normal" text-decoration="none" x="141" y="724.5">+save_screenshot()</text></g></g><g transform="translate(-126,-222) scale(1,1)"><g><path fill="none" stroke="none"/><text fill="#000000" stroke="none" font-family="Arial" font-size="13px" font-style="normal" font-weight="normal" text-decoration="none" x="141" y="739.5">+parse_screenshot()</text></g></g><g transform="translate(-126,-222) scale(1,1)"><rect fill="#C0C0C0" stroke="none" x="415" y="815" width="50" height="44" opacity="0.2"/></g><g transform="translate(-126,-222) scale(1,1)"><rect fill="#ffffff" stroke="none" x="408" y="808" width="50" height="44"/></g><g transform="translate(-126,-222) scale(1,1)"><path fill="none" stroke="#000000" d="M 408 808 L 458 808 L 458 852 L 408 852 L 408 808 Z Z" stroke-miterlimit="10"/></g><g transform="translate(-126,-222) scale(1,1)"><path fill="none" stroke="#000000" d="M 408 833 L 458 833" stroke-miterlimit="10"/></g><g transform="translate(-126,-222) scale(1,1)"><path fill="none" stroke="#000000" d="M 408 843 L 458 843" stroke-miterlimit="10"/></g><g transform="translate(-126,-222) scale(1,1)"><g><path fill="none" stroke="none"/><text fill="#000000" stroke="none" font-family="Arial" font-size="13px" font-style="normal" font-weight="bold" text-decoration="none" x="419" y="827.5">main</text></g></g><g transform="translate(-126,-222) scale(1,1)"><path fill="none" stroke="#000000" d="M 407 816 L 272 744" stroke-miterlimit="10" stroke-dasharray="3"/></g><g transform="translate(-126,-222) scale(1,1)"><path fill="none" stroke="#000000" d="M 282.9480155830877 745.068154854162 L 272 744 L 278.98611651860205 752.4967156000725" stroke-miterlimit="10"/></g><g transform="translate(-126,-222) scale(1,1)"><path fill="none" stroke="#000000" d="M 434 807 L 435 753" stroke-miterlimit="10" stroke-dasharray="3"/></g><g transform="translate(-126,-222) scale(1,1)"><path fill="none" stroke="#000000" d="M 439.02063072400256 763.2388734039057 L 435 753 L 430.6030384339769 763.0829920652014" stroke-miterlimit="10"/></g><g transform="translate(-126,-222) scale(1,1)"><path fill="none" stroke="#000000" d="M 436 679 L 437 641" stroke-miterlimit="10" stroke-dasharray="3"/></g><g transform="translate(-126,-222) scale(1,1)"><path fill="none" stroke="#000000" d="M 440.9407146667412 651.2698961978849 L 437 641 L 432.5245928199676 651.0484193071803" stroke-miterlimit="10"/></g><g transform="translate(-126,-222) scale(1,1)"><rect fill="#C0C0C0" stroke="none" x="239" y="535" width="92.103515625" height="57" opacity="0.2"/></g><g transform="translate(-126,-222) scale(1,1)"><rect fill="#ffffff" stroke="none" x="232" y="528" width="92.103515625" height="57"/></g><g transform="translate(-126,-222) scale(1,1)"><path fill="none" stroke="#000000" d="M 232 528 L 324.103515625 528 L 324.103515625 585 L 232 585 L 232 528 Z Z" stroke-miterlimit="10"/></g><g transform="translate(-126,-222) scale(1,1)"><path fill="none" stroke="#000000" d="M 232 553 L 324.103515625 553" stroke-miterlimit="10"/></g><g transform="translate(-126,-222) scale(1,1)"><path fill="none" stroke="#000000" d="M 232 563 L 324.103515625 563" stroke-miterlimit="10"/></g><g transform="translate(-126,-222) scale(1,1)"><g><path fill="none" stroke="none"/><text fill="#000000" stroke="none" font-family="Arial" font-size="13px" font-style="normal" font-weight="bold" text-decoration="none" x="246.5517578125" y="547.5">CardMover</text></g></g><g transform="translate(-126,-222) scale(1,1)"><g><path fill="none" stroke="none"/><text fill="#000000" stroke="none" font-family="Arial" font-size="13px" font-style="normal" font-weight="normal" text-decoration="none" x="237" y="580.5">+makeMove()</text></g></g><g transform="translate(-126,-222) scale(1,1)"><rect fill="#C0C0C0" stroke="none" x="607" y="687" width="121.607421875" height="72" opacity="0.2"/></g><g transform="translate(-126,-222) scale(1,1)"><rect fill="#ffffff" stroke="none" x="600" y="680" width="121.607421875" height="72"/></g><g transform="translate(-126,-222) scale(1,1)"><path fill="none" stroke="#000000" d="M 600 680 L 721.607421875 680 L 721.607421875 752 L 600 752 L 600 680 Z Z" stroke-miterlimit="10"/></g><g transform="translate(-126,-222) scale(1,1)"><path fill="none" stroke="#000000" d="M 600 705 L 721.607421875 705" stroke-miterlimit="10"/></g><g transform="translate(-126,-222) scale(1,1)"><path fill="none" stroke="#000000" d="M 600 715 L 721.607421875 715" stroke-miterlimit="10"/></g><g transform="translate(-126,-222) scale(1,1)"><g><path fill="none" stroke="none"/><text fill="#000000" stroke="none" font-family="Arial" font-size="13px" font-style="normal" font-weight="bold" text-decoration="none" x="621.8037109375" y="699.5">GUIController</text></g></g><g transform="translate(-126,-222) scale(1,1)"><g><path fill="none" stroke="none"/><text fill="#000000" stroke="none" font-family="Arial" font-size="13px" font-style="normal" font-weight="normal" text-decoration="none" x="605" y="732.5">+pressNewGame()</text></g></g><g transform="translate(-126,-222) scale(1,1)"><g><path fill="none" stroke="none"/><text fill="#000000" stroke="none" font-family="Arial" font-size="13px" font-style="normal" font-weight="normal" text-decoration="none" x="605" y="747.5">+execute()</text></g></g><g transform="translate(-126,-222) scale(1,1)"><path fill="none" stroke="#000000" d="M 459 817 L 599 747" stroke-miterlimit="10" stroke-dasharray="3"/></g><g transform="translate(-126,-222) scale(1,1)"><path fill="none" stroke="#000000" d="M 591.7927808450386 755.3099935049528 L 599 747 L 588.0276737030609 747.7797792209975" stroke-miterlimit="10"/></g><g transform="translate(-126,-222) scale(1,1)"><path fill="none" stroke="#000000" d="M 375 585 L 325 570" stroke-miterlimit="10"/></g><g transform="translate(-126,-222) scale(1,1)"><path fill="#000000" stroke="none" d="M 335.94367313323374 568.8882363772193 L 325 570 L 333.5244810803434 576.9522098868538 L 346.07217827486534 576.3216534824596"/></g><g transform="translate(-126,-222) scale(1,1)"><path fill="none" stroke="#000000" d="M 335.94367313323374 568.8882363772193 L 325 570 L 333.5244810803434 576.9522098868538 L 346.07217827486534 576.3216534824596 L 335.94367313323374 568.8882363772193" stroke-miterlimit="10"/></g><g transform="translate(-126,-222) scale(1,1)"><path fill="none" stroke="#000000" d="M 499 590 L 567 575" stroke-miterlimit="10"/></g><g transform="translate(-126,-222) scale(1,1)"><path fill="#000000" stroke="none" d="M 557.9826771709212 581.299832457786 L 567 575 L 556.1691356281705 573.0784441306497 L 545.5164769837935 579.7390124300456"/></g><g transform="translate(-126,-222) scale(1,1)"><path fill="none" stroke="#000000" d="M 557.9826771709212 581.299832457786 L 567 575 L 556.1691356281705 573.0784441306497 L 545.5164769837935 579.7390124300456 L 557.9826771709212 581.299832457786" stroke-miterlimit="10"/></g><g transform="translate(-126,-222) scale(1,1)"><path fill="none" stroke="#000000" d="M 599 685 L 499 635" stroke-miterlimit="10" stroke-dasharray="3"/></g><g transform="translate(-126,-222) scale(1,1)"><path fill="none" stroke="#000000" d="M 509.97232629693906 635.7797792209975 L 499 635 L 506.2072191549614 643.3099935049528" stroke-miterlimit="10"/></g><g transform="translate(-126,-222) scale(1,1)"><path fill="none" stroke="#000000" d="M 422 567 L 338 357" stroke-miterlimit="10" stroke-dasharray="3"/></g><g transform="translate(-126,-222) scale(1,1)"><path fill="none" stroke="#000000" d="M 345.68276180526834 364.8724310758183 L 338 357 L 337.86588357261144 367.99918236888107" stroke-miterlimit="10"/></g><g transform="translate(-126,-222) scale(1,1)"><path fill="none" stroke="#000000" d="M 203 671 L 208 336 L 303 334" stroke-miterlimit="10" stroke-dasharray="3"/></g><g transform="translate(-126,-222) scale(1,1)"><path fill="none" stroke="#000000" d="M 292.92817830420927 338.422488861286 L 303 334 L 292.7509747164673 330.00531844354185" stroke-miterlimit="10"/></g><g transform="translate(-126,-222) scale(1,1)"><path fill="none" stroke="#000000" d="M 329 311 L 329 277" stroke-miterlimit="10"/></g><g transform="translate(-126,-222) scale(1,1)"><path fill="#000000" stroke="none" d="M 333.209517756016 287.16267485762415 L 329 277 L 324.790482243984 287.16267485762415 L 329 299"/></g><g transform="translate(-126,-222) scale(1,1)"><path fill="none" stroke="#000000" d="M 333.209517756016 287.16267485762415 L 329 277 L 324.790482243984 287.16267485762415 L 329 299 L 333.209517756016 287.16267485762415" stroke-miterlimit="10"/></g><g transform="translate(-126,-222) scale(1,1)"><rect fill="#C0C0C0" stroke="none" x="399" y="383" width="88" height="87" opacity="0.2"/></g><g transform="translate(-126,-222) scale(1,1)"><rect fill="#ffffff" stroke="none" x="392" y="376" width="88" height="87"/></g><g transform="translate(-126,-222) scale(1,1)"><path fill="none" stroke="#000000" d="M 392 376 L 480 376 L 480 463 L 392 463 L 392 376 Z Z" stroke-miterlimit="10"/></g><g transform="translate(-126,-222) scale(1,1)"><path fill="none" stroke="#000000" d="M 392 401 L 480 401" stroke-miterlimit="10"/></g><g transform="translate(-126,-222) scale(1,1)"><path fill="none" stroke="#000000" d="M 392 411 L 480 411" stroke-miterlimit="10"/></g><g transform="translate(-126,-222) scale(1,1)"><g><path fill="none" stroke="none"/><text fill="#000000" stroke="none" font-family="Arial" font-size="13px" font-style="normal" font-weight="bold" text-decoration="none" x="412.5" y="395.5">Solitaire</text></g></g><g transform="translate(-126,-222) scale(1,1)"><g><path fill="none" stroke="none"/><text fill="#000000" stroke="none" font-family="Arial" font-size="13px" font-style="normal" font-weight="normal" text-decoration="none" x="397" y="428.5">+newGame()</text></g></g><g transform="translate(-126,-222) scale(1,1)"><g><path fill="none" stroke="none"/><text fill="#000000" stroke="none" font-family="Arial" font-size="13px" font-style="normal" font-weight="normal" text-decoration="none" x="397" y="443.5">+isWin()</text></g></g><g transform="translate(-126,-222) scale(1,1)"><g><path fill="none" stroke="none"/><text fill="#000000" stroke="none" font-family="Arial" font-size="13px" font-style="normal" font-weight="normal" text-decoration="none" x="397" y="458.5">+clearBoard()</text></g></g><g transform="translate(-126,-222) scale(1,1)"><path fill="none" stroke="#000000" d="M 437 567 L 436 464" stroke-miterlimit="10"/></g><g transform="translate(-126,-222) scale(1,1)"><path fill="#FFFFFF" stroke="none" d="M 444.6159629454103 484.24265749656695 L 436 464 L 427.77868544009243 484.4061262102108"/></g><g transform="translate(-126,-222) scale(1,1)"><path fill="none" stroke="#000000" d="M 444.6159629454103 484.24265749656695 L 436 464 L 427.77868544009243 484.4061262102108 L 444.6159629454103 484.24265749656695" stroke-miterlimit="10"/></g></g></svg>